<svg xmlns="http://www.w3.org/2000/svg" viewBox="0 0 23.21 45.2"><defs><style>.cls-1{fill:#010101;}</style></defs><title>Star</title><g id="Layer_2" data-name="Layer 2"><g id="Layer_1-2" data-name="Layer 1"><path class="cls-1" d="M22.35,29.63c-.08.41.72.75.12,1a1.58,1.58,0,0,1-1.15,0,22,22,0,0,1-5-3.12,31.58,31.58,0,0,1-2.57-2.33.64.64,0,0,0-.44-.08s-.11.23-.08.34a33.66,33.66,0,0,1,.54,5.84A54.58,54.58,0,0,0,14.27,37a13,13,0,0,0,.87,3.32,9,9,0,0,1,.68,3.93c0,.71-.54,1.12-1.1.8s-1.13-.63-1-1.37a4.47,4.47,0,0,0-.58-2.66,17.15,17.15,0,0,1-1.32-4.61,26.77,26.77,0,0,0-1-3.8,2.94,2.94,0,0,1,0-.51c-.09-1.54-.17-3.09-.27-4.63a2.91,2.91,0,0,0-.15-.58,4.89,4.89,0,0,0-.44.47,42.33,42.33,0,0,1-4.57,5.35,1.32,1.32,0,0,1-1,.53c-1.15,0-1.4-.37-1.22-1.51.31-2,1.62-3.49,2.72-5.07.35-.51.66-1.05,1-1.55s.31-.6-.27-.6c-1,0-2.11,0-3.16,0S1.56,24.4.59,24.29a.68.68,0,0,1-.54-.95A2.42,2.42,0,0,1,2.34,22c1.49-.19,3-.21,4.5-.29a2.91,2.91,0,0,0,.66,0c.41-.12.81-.31,1.21-.46l-.87-.8C6.54,19.18,5.25,18,3.93,16.76c-.46-.42-1-.78-1.49-1.16-.16-.13-.37-.2-.51-.34a1.8,1.8,0,0,1-.45-2.06,1.69,1.69,0,0,1,1.9,0A24.45,24.45,0,0,1,5.82,15c1,.8,1.85,1.68,2.79,2.5a1.59,1.59,0,0,0,.54.2c0-.18-.08-.36-.1-.54-.12-.83-.27-1.66-.33-2.5a44.33,44.33,0,0,0-.31-4.49,33.34,33.34,0,0,1-.18-6.62,4,4,0,0,1,1-3.12A1.62,1.62,0,0,1,11,.12c.3.07.6.72.62,1.12,0,.7-.19,1.42-.21,2.13,0,1.23,0,2.46,0,3.69a28.57,28.57,0,0,0,.51,5.45,30.15,30.15,0,0,1,.29,3.31,4.77,4.77,0,0,0,.07.76c.1.38.25.75.38,1.12.27-.28.55-.57.81-.86a3.05,3.05,0,0,1,3.32-.75c1,.49,1.17,1,.52,1.9-.37.52-.81,1-1.2,1.49a.37.37,0,0,0,0,.35.4.4,0,0,0,.35.1c1.11-.39,2.21-.81,3.32-1.2a9.49,9.49,0,0,1,1.51-.49c1.17-.2,2.22.66,2,1.67a2.15,2.15,0,0,1-.89,1.19,21.74,21.74,0,0,1-5,2.13,5.58,5.58,0,0,1-.92,0c-.17,0-.44.12-.47.24a.69.69,0,0,0,.16.57c1.12,1,2.27,1.92,3.4,2.9C20.38,27.81,21.33,28.69,22.35,29.63Z"/></g></g></svg>